<?xml version="1.0" standalone="no"?>
<!DOCTYPE svg PUBLIC "-//W3C//DTD SVG 20010904//EN"
 "http://www.w3.org/TR/2001/REC-SVG-20010904/DTD/svg10.dtd">
<svg version="1.0" xmlns="http://www.w3.org/2000/svg"
 width="980.000000pt" height="980.000000pt" viewBox="0 0 980.000000 980.000000"
 preserveAspectRatio="xMidYMid meet">

<g transform="translate(0.000000,980.000000) scale(0.100000,-0.100000)"
fill="#000000" stroke="none">
<path d="M3673 8819 l-1223 -979 0 570 0 570 -815 0 -815 0 0 -1222 0 -1223
-410 -328 -410 -327 0 -261 c0 -208 3 -259 13 -252 6 6 1105 884 2440 1952
1336 1068 2434 1944 2442 1947 7 3 1047 -821 2442 -1937 1335 -1068 2436
-1949 2446 -1957 16 -14 17 -2 17 246 l0 262 -2450 1960 c-1347 1078 -2451
1960 -2452 1959 -2 0 -553 -441 -1225 -980z"/>
<path d="M2857 6940 l-2037 -1630 0 -2655 0 -2655 1430 0 1430 0 0 1635 0
1635 1220 0 1220 0 0 -1635 0 -1635 1430 0 1430 0 -2 2657 -3 2657 -2033 1628
c-1119 895 -2037 1628 -2040 1628 -4 0 -924 -734 -2045 -1630z"/>
</g>
</svg>
