<?xml version="1.0" standalone="no"?>
<!DOCTYPE svg PUBLIC "-//W3C//DTD SVG 20010904//EN"
 "http://www.w3.org/TR/2001/REC-SVG-20010904/DTD/svg10.dtd">
<svg version="1.0" xmlns="http://www.w3.org/2000/svg"
 width="48.000000pt" height="48.000000pt" viewBox="0 0 48.000000 48.000000"
 preserveAspectRatio="xMidYMid meet">

<g transform="translate(0.000000,48.000000) scale(0.100000,-0.100000)"
fill="#000000" stroke="none">
<path d="M0 263 l0 -217 69 68 c46 45 75 67 87 64 40 -7 27 -39 -42 -109 l-68
-69 217 0 217 0 0 156 0 156 -32 -21 c-18 -12 -50 -31 -70 -43 -33 -19 -38
-26 -38 -59 0 -52 -18 -89 -44 -89 -28 0 -196 168 -196 196 0 26 37 44 89 44
33 0 40 5 59 38 12 20 31 52 43 70 l21 32 -156 0 -156 0 0 -217z"/>
<path d="M415 420 c33 -33 61 -60 62 -60 2 0 3 27 3 60 l0 60 -62 0 -62 0 59
-60z"/>
<path d="M311 385 c-29 -50 -26 -58 5 -12 14 21 24 41 21 43 -2 3 -14 -11 -26
-31z"/>
</g>
</svg>
